<?xml version="1.0" encoding="UTF-8" standalone="no"?>
<!-- Created with Inkscape (http://www.inkscape.org/) -->

<svg
   version="1.1"
   id="svg1"
   width="340.19287"
   height="351.14548"
   viewBox="0 0 340.19287 351.14548"
   sodipodi:docname="wellnitz.svg"
   inkscape:version="1.4 (86a8ad7, 2024-10-11)"
   xmlns:inkscape="http://www.inkscape.org/namespaces/inkscape"
   xmlns:sodipodi="http://sodipodi.sourceforge.net/DTD/sodipodi-0.dtd"
   xmlns="http://www.w3.org/2000/svg"
   xmlns:svg="http://www.w3.org/2000/svg">
  <defs
     id="defs1">
    <clipPath
       clipPathUnits="userSpaceOnUse"
       id="clipPath3">
      <path
         d="m -297.6415,31.18166 v -442.21039 h 595.283 V 31.18166 Z"
         transform="matrix(1,0,0,-1,117.262,-4.0159999)"
         id="path3" />
    </clipPath>
    <clipPath
       clipPathUnits="userSpaceOnUse"
       id="clipPath5">
      <path
         d="m -297.6415,31.18166 v -442.21039 h 595.283 V 31.18166 Z"
         transform="matrix(1,0,0,-1,283.46401,-344.17401)"
         id="path5" />
    </clipPath>
    <clipPath
       clipPathUnits="userSpaceOnUse"
       id="clipPath7">
      <path
         d="m -297.6415,31.18166 v -442.21039 h 595.283 V 31.18166 Z"
         transform="matrix(1,0,0,-1,178.96005,-344.17401)"
         id="path7" />
    </clipPath>
    <clipPath
       clipPathUnits="userSpaceOnUse"
       id="clipPath8">
      <path
         d="M 0,0 H 308.157 V 318.078 H 0 Z"
         transform="translate(-24.293996,-269.68999)"
         id="path8" />
    </clipPath>
    <clipPath
       clipPathUnits="userSpaceOnUse"
       id="clipPath9">
      <path
         d="M 0,0 H 308.157 V 318.078 H 0 Z"
         transform="translate(-24.293996,-269.68999)"
         id="path9" />
    </clipPath>
    <clipPath
       clipPathUnits="userSpaceOnUse"
       id="clipPath10">
      <path
         d="M 0,0 H 308.157 V 318.078 H 0 Z"
         transform="matrix(0.99999997,0,0,-0.99999997,-56.514003,280.29699)"
         id="path10" />
    </clipPath>
    <clipPath
       clipPathUnits="userSpaceOnUse"
       id="clipPath11">
      <path
         d="M 0,0 H 308.157 V 318.078 H 0 Z"
         transform="translate(-24.293996,-269.68999)"
         id="path11" />
    </clipPath>
    <clipPath
       clipPathUnits="userSpaceOnUse"
       id="clipPath12">
      <path
         d="M 0,0 H 308.157 V 318.078 H 0 Z"
         transform="matrix(0.99999997,0,0,-0.99999997,-106.11999,304.39199)"
         id="path12" />
    </clipPath>
    <clipPath
       clipPathUnits="userSpaceOnUse"
       id="clipPath13">
      <path
         d="M 0,0 H 308.157 V 318.078 H 0 Z"
         transform="translate(-24.293996,-269.68999)"
         id="path13" />
    </clipPath>
    <clipPath
       clipPathUnits="userSpaceOnUse"
       id="clipPath14">
      <path
         d="M 0,0 H 308.157 V 318.078 H 0 Z"
         transform="matrix(0.99999997,0,0,-0.99999997,-184.073,280.29699)"
         id="path14" />
    </clipPath>
    <clipPath
       clipPathUnits="userSpaceOnUse"
       id="clipPath15">
      <path
         d="M 0,0 H 308.157 V 318.078 H 0 Z"
         transform="translate(-24.293996,-269.68999)"
         id="path15" />
    </clipPath>
    <clipPath
       clipPathUnits="userSpaceOnUse"
       id="clipPath16">
      <path
         d="M 0,0 H 308.157 V 318.078 H 0 Z"
         transform="matrix(0.99999997,0,0,-0.99999997,-247.85199,304.39199)"
         id="path16" />
    </clipPath>
    <clipPath
       clipPathUnits="userSpaceOnUse"
       id="clipPath17">
      <path
         d="M 0,0 H 308.157 V 318.078 H 0 Z"
         transform="translate(-24.293996,-269.68999)"
         id="path17" />
    </clipPath>
    <clipPath
       clipPathUnits="userSpaceOnUse"
       id="clipPath18">
      <path
         d="M 0,0 H 308.157 V 318.078 H 0 Z"
         transform="matrix(0.99999997,0,0,-0.99999997,-3.5619987,241.061)"
         id="path18" />
    </clipPath>
    <clipPath
       clipPathUnits="userSpaceOnUse"
       id="clipPath19">
      <path
         d="M 0,0 H 308.157 V 318.078 H 0 Z"
         transform="translate(-24.293996,-269.68999)"
         id="path19" />
    </clipPath>
    <clipPath
       clipPathUnits="userSpaceOnUse"
       id="clipPath20">
      <path
         d="M 0,0 H 308.157 V 318.078 H 0 Z"
         transform="matrix(0.99999997,0,0,-0.99999997,-3.5619987,177.281)"
         id="path20" />
    </clipPath>
    <clipPath
       clipPathUnits="userSpaceOnUse"
       id="clipPath21">
      <path
         d="M 0,0 H 308.157 V 318.078 H 0 Z"
         transform="translate(-24.293996,-269.68999)"
         id="path21" />
    </clipPath>
    <clipPath
       clipPathUnits="userSpaceOnUse"
       id="clipPath22">
      <path
         d="M 0,0 H 308.157 V 318.078 H 0 Z"
         transform="matrix(0.99999997,0,0,-0.99999997,-3.5619987,99.328998)"
         id="path22" />
    </clipPath>
    <clipPath
       clipPathUnits="userSpaceOnUse"
       id="clipPath23">
      <path
         d="M 0,0 H 308.157 V 318.078 H 0 Z"
         transform="translate(-24.293996,-269.68999)"
         id="path23" />
    </clipPath>
    <clipPath
       clipPathUnits="userSpaceOnUse"
       id="clipPath24">
      <path
         d="M 0,0 H 308.157 V 318.078 H 0 Z"
         transform="matrix(0.99999997,0,0,-0.99999997,-3.5619987,28.462996)"
         id="path24" />
    </clipPath>
    <clipPath
       clipPathUnits="userSpaceOnUse"
       id="clipPath25">
      <path
         d="M 0,0 H 308.157 V 318.078 H 0 Z"
         transform="translate(-24.293996,-269.68999)"
         id="path25" />
    </clipPath>
    <clipPath
       clipPathUnits="userSpaceOnUse"
       id="clipPath26">
      <path
         d="M 0,0 H 308.157 V 318.078 H 0 Z"
         transform="translate(-24.293996,-269.68999)"
         id="path26" />
    </clipPath>
    <clipPath
       clipPathUnits="userSpaceOnUse"
       id="clipPath27">
      <path
         d="M 0,0 H 308.157 V 318.078 H 0 Z"
         transform="translate(-24.293996,-269.68999)"
         id="path27" />
    </clipPath>
    <clipPath
       clipPathUnits="userSpaceOnUse"
       id="clipPath28">
      <path
         d="M 0,0 H 308.157 V 318.078 H 0 Z"
         transform="translate(-24.293996,-269.68999)"
         id="path28" />
    </clipPath>
    <clipPath
       clipPathUnits="userSpaceOnUse"
       id="clipPath29">
      <path
         d="M 0,0 H 308.157 V 318.078 H 0 Z"
         transform="translate(-24.293996,-269.68999)"
         id="path29" />
    </clipPath>
    <clipPath
       clipPathUnits="userSpaceOnUse"
       id="clipPath30">
      <path
         d="M 0,0 H 308.157 V 318.078 H 0 Z"
         transform="translate(-24.293996,-269.68999)"
         id="path30" />
    </clipPath>
    <clipPath
       clipPathUnits="userSpaceOnUse"
       id="clipPath31">
      <path
         d="M 0,0 H 308.157 V 318.078 H 0 Z"
         transform="translate(-24.293996,-269.68999)"
         id="path31" />
    </clipPath>
    <clipPath
       clipPathUnits="userSpaceOnUse"
       id="clipPath32">
      <path
         d="M 0,0 H 308.157 V 318.078 H 0 Z"
         transform="translate(-24.293996,-269.68999)"
         id="path32" />
    </clipPath>
    <clipPath
       clipPathUnits="userSpaceOnUse"
       id="clipPath33">
      <path
         d="M 0,0 H 308.157 V 318.078 H 0 Z"
         transform="translate(-24.293996,-269.68999)"
         id="path33" />
    </clipPath>
    <clipPath
       clipPathUnits="userSpaceOnUse"
       id="clipPath74">
      <path
         d="m -297.6415,31.18166 v -442.21039 h 595.283 V 31.18166 Z"
         transform="matrix(1,0,0,-1,283.46401,-372.52001)"
         id="path74" />
    </clipPath>
    <clipPath
       clipPathUnits="userSpaceOnUse"
       id="clipPath76">
      <path
         d="m -297.6415,31.18166 v -442.21039 h 595.283 V 31.18166 Z"
         transform="matrix(1,0,0,-1,225.29786,-372.52001)"
         id="path76" />
    </clipPath>
    <clipPath
       clipPathUnits="userSpaceOnUse"
       id="clipPath78">
      <path
         d="m -297.6415,31.18166 v -442.21039 h 595.283 V 31.18166 Z"
         transform="matrix(1,0,0,-1,-74.602269,-372.52001)"
         id="path78" />
    </clipPath>
    <clipPath
       clipPathUnits="userSpaceOnUse"
       id="clipPath80">
      <path
         d="m -297.6415,31.18166 v -442.21039 h 595.283 V 31.18166 Z"
         transform="matrix(1,0,0,-1,-137.81375,-372.52001)"
         id="path80" />
    </clipPath>
    <clipPath
       clipPathUnits="userSpaceOnUse"
       id="clipPath83">
      <path
         d="M -229.71755,132.42804 V -401.66825 H 489.25796 V 132.42804 Z"
         id="path83"
         style="stroke-width:1.33333" />
    </clipPath>
    <clipPath
       clipPathUnits="userSpaceOnUse"
       id="clipPath84">
      <path
         d="M -229.71755,132.42804 V -401.66825 H 489.25796 V 132.42804 Z"
         id="path84"
         style="stroke-width:1.33333" />
    </clipPath>
    <clipPath
       clipPathUnits="userSpaceOnUse"
       id="clipPath85">
      <path
         d="M -229.71755,132.42804 V -401.66825 H 489.25796 V 132.42804 Z"
         id="path85"
         style="stroke-width:1.33333" />
    </clipPath>
    <clipPath
       clipPathUnits="userSpaceOnUse"
       id="clipPath86">
      <path
         d="M -229.71755,132.42804 V -401.66825 H 489.25796 V 132.42804 Z"
         id="path86"
         style="stroke-width:1.33333" />
    </clipPath>
    <clipPath
       clipPathUnits="userSpaceOnUse"
       id="clipPath87">
      <path
         d="M -229.71755,132.42804 V -401.66825 H 489.25796 V 132.42804 Z"
         id="path87"
         style="stroke-width:1.33333" />
    </clipPath>
    <clipPath
       clipPathUnits="userSpaceOnUse"
       id="clipPath88">
      <path
         d="M -229.71755,132.42804 V -401.66825 H 489.25796 V 132.42804 Z"
         id="path88"
         style="stroke-width:1.33333" />
    </clipPath>
    <clipPath
       clipPathUnits="userSpaceOnUse"
       id="clipPath89">
      <path
         d="M -229.71755,132.42804 V -401.66825 H 489.25796 V 132.42804 Z"
         id="path89"
         style="stroke-width:1.33333" />
    </clipPath>
    <clipPath
       clipPathUnits="userSpaceOnUse"
       id="clipPath90">
      <path
         d="M -229.71755,132.42804 V -401.66825 H 489.25796 V 132.42804 Z"
         id="path90"
         style="stroke-width:1.33333" />
    </clipPath>
    <clipPath
       clipPathUnits="userSpaceOnUse"
       id="clipPath91">
      <path
         d="M -229.71755,132.42804 V -401.66825 H 489.25796 V 132.42804 Z"
         id="path91"
         style="stroke-width:1.33333" />
    </clipPath>
    <clipPath
       clipPathUnits="userSpaceOnUse"
       id="clipPath93">
      <path
         d="M -229.71755,132.42804 V -401.66825 H 489.25796 V 132.42804 Z"
         id="path93"
         style="stroke-width:1.33333" />
    </clipPath>
    <clipPath
       clipPathUnits="userSpaceOnUse"
       id="clipPath95">
      <path
         d="M -229.71755,132.42804 V -401.66825 H 489.25796 V 132.42804 Z"
         id="path95"
         style="stroke-width:1.33333" />
    </clipPath>
    <clipPath
       clipPathUnits="userSpaceOnUse"
       id="clipPath97">
      <path
         d="M -229.71755,132.42804 V -401.66825 H 489.25796 V 132.42804 Z"
         id="path97"
         style="stroke-width:1.33333" />
    </clipPath>
    <clipPath
       clipPathUnits="userSpaceOnUse"
       id="clipPath99">
      <path
         d="M -229.71755,132.42804 V -401.66825 H 489.25796 V 132.42804 Z"
         id="path99"
         style="stroke-width:1.33333" />
    </clipPath>
    <clipPath
       clipPathUnits="userSpaceOnUse"
       id="clipPath101">
      <path
         d="M -229.71755,132.42804 V -401.66825 H 489.25796 V 132.42804 Z"
         id="path101"
         style="stroke-width:1.33333" />
    </clipPath>
    <clipPath
       clipPathUnits="userSpaceOnUse"
       id="clipPath103">
      <path
         d="M -229.71755,132.42804 V -401.66825 H 489.25796 V 132.42804 Z"
         id="path103"
         style="stroke-width:1.33333" />
    </clipPath>
    <clipPath
       clipPathUnits="userSpaceOnUse"
       id="clipPath105">
      <path
         d="M -229.71755,132.42804 V -401.66825 H 489.25796 V 132.42804 Z"
         id="path105"
         style="stroke-width:1.33333" />
    </clipPath>
    <clipPath
       clipPathUnits="userSpaceOnUse"
       id="clipPath107">
      <path
         d="M -229.71755,132.42804 V -401.66825 H 489.25796 V 132.42804 Z"
         id="path107"
         style="stroke-width:1.33333" />
    </clipPath>
    <clipPath
       clipPathUnits="userSpaceOnUse"
       id="clipPath108">
      <path
         d="M -229.71755,132.42804 V -401.66825 H 489.25796 V 132.42804 Z"
         id="path108"
         style="stroke-width:1.33333" />
    </clipPath>
    <clipPath
       clipPathUnits="userSpaceOnUse"
       id="clipPath109">
      <path
         d="M 1.8846817,-8.7834637e-4 V 589.61296 H 795.59532 V -8.7834637e-4 Z"
         id="path109"
         style="stroke-width:1.33332" />
    </clipPath>
    <clipPath
       clipPathUnits="userSpaceOnUse"
       id="clipPath110">
      <path
         d="M 1.8846817,-8.7834637e-4 V 589.61296 H 795.59532 V -8.7834637e-4 Z"
         id="path110"
         style="stroke-width:1.33332" />
    </clipPath>
    <clipPath
       clipPathUnits="userSpaceOnUse"
       id="clipPath111">
      <path
         d="M 1.884675,-8.7509857e-4 V 589.61296 H 795.59532 V -8.7509857e-4 Z"
         id="path111"
         style="stroke-width:1.33332" />
    </clipPath>
    <clipPath
       clipPathUnits="userSpaceOnUse"
       id="clipPath112">
      <path
         d="M 1.884675,-8.7509857e-4 V 589.61296 H 795.59532 V -8.7509857e-4 Z"
         id="path112"
         style="stroke-width:1.33332" />
    </clipPath>
    <clipPath
       clipPathUnits="userSpaceOnUse"
       id="clipPath113">
      <path
         d="M 1.884675,-8.7509857e-4 V 589.61296 H 795.59532 V -8.7509857e-4 Z"
         id="path113"
         style="stroke-width:1.33332" />
    </clipPath>
    <clipPath
       clipPathUnits="userSpaceOnUse"
       id="clipPath114">
      <path
         d="M 1.8846817,-8.7781977e-4 V 589.61296 H 795.59532 V -8.7781977e-4 Z"
         id="path114"
         style="stroke-width:1.33332" />
    </clipPath>
    <clipPath
       clipPathUnits="userSpaceOnUse"
       id="clipPath115">
      <path
         d="M 1.8846817,-8.7781977e-4 V 589.61296 H 795.59532 V -8.7781977e-4 Z"
         id="path115"
         style="stroke-width:1.33332" />
    </clipPath>
    <clipPath
       clipPathUnits="userSpaceOnUse"
       id="clipPath116">
      <path
         d="M 1.8846817,-8.7834577e-4 V 589.61296 H 795.59532 V -8.7834577e-4 Z"
         id="path116"
         style="stroke-width:1.33332" />
    </clipPath>
    <clipPath
       clipPathUnits="userSpaceOnUse"
       id="clipPath117">
      <path
         d="M 1.8846817,-8.7834577e-4 V 589.61296 H 795.59532 V -8.7834577e-4 Z"
         id="path117"
         style="stroke-width:1.33332" />
    </clipPath>
    <clipPath
       clipPathUnits="userSpaceOnUse"
       id="clipPath118">
      <path
         d="M 1.8846817,-8.8150417e-4 V 589.61296 H 795.59532 V -8.8150417e-4 Z"
         id="path118"
         style="stroke-width:1.33332" />
    </clipPath>
    <clipPath
       clipPathUnits="userSpaceOnUse"
       id="clipPath119">
      <path
         d="M 1.8846817,-8.8150417e-4 V 589.61296 H 795.59532 V -8.8150417e-4 Z"
         id="path119"
         style="stroke-width:1.33332" />
    </clipPath>
    <clipPath
       clipPathUnits="userSpaceOnUse"
       id="clipPath120">
      <path
         d="M 1.8846724,-8.7819364e-4 V 589.61296 H 795.59533 V -8.7819364e-4 Z"
         id="path120"
         style="stroke-width:1.33332" />
    </clipPath>
    <clipPath
       clipPathUnits="userSpaceOnUse"
       id="clipPath121">
      <path
         d="M 1.8846724,-8.7819364e-4 V 589.61296 H 795.59533 V -8.7819364e-4 Z"
         id="path121"
         style="stroke-width:1.33332" />
    </clipPath>
    <clipPath
       clipPathUnits="userSpaceOnUse"
       id="clipPath122">
      <path
         d="M 1.8846724,-8.7819364e-4 V 589.61296 H 795.59533 V -8.7819364e-4 Z"
         id="path122"
         style="stroke-width:1.33332" />
    </clipPath>
    <clipPath
       clipPathUnits="userSpaceOnUse"
       id="clipPath123">
      <path
         d="M 1.8846761,-8.7819364e-4 V 589.61296 H 795.59532 V -8.7819364e-4 Z"
         id="path123"
         style="stroke-width:1.33332" />
    </clipPath>
    <clipPath
       clipPathUnits="userSpaceOnUse"
       id="clipPath124">
      <path
         d="M 1.8846761,-8.7819364e-4 V 589.61296 H 795.59532 V -8.7819364e-4 Z"
         id="path124"
         style="stroke-width:1.33332" />
    </clipPath>
    <clipPath
       clipPathUnits="userSpaceOnUse"
       id="clipPath125">
      <path
         d="M 1.8846761,-8.7819364e-4 V 589.61296 H 795.59532 V -8.7819364e-4 Z"
         id="path125"
         style="stroke-width:1.33332" />
    </clipPath>
    <clipPath
       clipPathUnits="userSpaceOnUse"
       id="clipPath126">
      <path
         d="M 1.884679,-8.7509857e-4 V 589.61296 H 795.59532 V -8.7509857e-4 Z"
         id="path126"
         style="stroke-width:1.33332" />
    </clipPath>
    <clipPath
       clipPathUnits="userSpaceOnUse"
       id="clipPath127">
      <path
         d="M 1.884679,-8.7509857e-4 V 589.61296 H 795.59532 V -8.7509857e-4 Z"
         id="path127"
         style="stroke-width:1.33332" />
    </clipPath>
    <clipPath
       clipPathUnits="userSpaceOnUse"
       id="clipPath128">
      <path
         d="M 1.884679,-8.7509857e-4 V 589.61296 H 795.59532 V -8.7509857e-4 Z"
         id="path128"
         style="stroke-width:1.33332" />
    </clipPath>
  </defs>
  <sodipodi:namedview
     id="namedview1"
     pagecolor="#0c0c0c"
     bordercolor="#000000"
     borderopacity="0.25"
     inkscape:showpageshadow="2"
     inkscape:pageopacity="0.0"
     inkscape:pagecheckerboard="0"
     inkscape:deskcolor="#d1d1d1"
     inkscape:zoom="1.4688337"
     inkscape:cx="112.67443"
     inkscape:cy="193.01028"
     inkscape:window-width="1920"
     inkscape:window-height="1171"
     inkscape:window-x="-9"
     inkscape:window-y="-9"
     inkscape:window-maximized="1"
     inkscape:current-layer="layer1">
    <inkscape:page
       x="0"
       y="0"
       inkscape:label="10"
       id="page1"
       width="340.19287"
       height="351.14548"
       margin="0"
       bleed="0" />
  </sodipodi:namedview>
  <g
     id="g1"
     inkscape:groupmode="layer"
     inkscape:label="10"
     transform="translate(-228.66135,-92.774056)">
    <path
       d="m 297.66016,124.8125 c 0.0937,-0.375 0.125,-0.51563 0.35938,-0.57813 0.125,-0.0312 0.65625,-0.0312 0.98437,-0.0312 1.57813,0 2.32813,0.0625 2.32813,1.29688 0,0.23437 -0.0625,0.84375 -0.15625,1.42187 l -0.0156,0.1875 c 0,0.0781 0.0625,0.17188 0.15625,0.17188 0.15625,0 0.15625,-0.0781 0.20313,-0.34375 l 0.46875,-2.79688 c 0.0312,-0.14062 0.0312,-0.17187 0.0312,-0.21875 0,-0.17187 -0.0937,-0.17187 -0.42188,-0.17187 h -8.65625 c -0.375,0 -0.39062,0.0156 -0.48437,0.29687 l -0.96875,2.84375 c -0.0156,0.0312 -0.0625,0.20313 -0.0625,0.21875 0,0.0937 0.0625,0.17188 0.15625,0.17188 0.14062,0 0.17187,-0.0625 0.23437,-0.28125 0.65625,-1.90625 1,-2.79688 3.09375,-2.79688 h 1.0625 c 0.39063,0 0.54688,0 0.54688,0.17188 0,0.0469 0,0.0781 -0.0781,0.35937 l -2.125,8.51563 c -0.15625,0.60937 -0.1875,0.78125 -1.875,0.78125 -0.39062,0 -0.5,0 -0.5,0.29687 0,0.15625 0.17188,0.15625 0.25,0.15625 0.39063,0 0.8125,-0.0312 1.20313,-0.0312 h 2.46875 c 0.40625,0 0.82812,0.0312 1.21875,0.0312 0.17187,0 0.34375,0 0.34375,-0.29687 0,-0.15625 -0.10938,-0.15625 -0.53125,-0.15625 -1.42188,0 -1.42188,-0.15625 -1.42188,-0.39063 0,-0.0156 0,-0.125 0.0625,-0.375 z m 0,0"
       style="fill:#ffffff;fill-opacity:1;fill-rule:nonzero;stroke:none;stroke-width:1.10395"
       id="path36"
       clip-path="url(#clipPath113)" />
    <path
       d="m 304.4961,129.98437 c 0,-0.20312 -0.14063,-0.39062 -0.40625,-0.39062 -0.25,0 -0.59375,0.25 -0.59375,0.57812 0,0.21875 0.15625,0.39063 0.40625,0.39063 0.29687,0 0.59375,-0.28125 0.59375,-0.57813 z m -2.20313,7.42188 c -0.20312,0.84375 -0.73437,1.46875 -1.35937,1.46875 -0.0625,0 -0.21875,0 -0.42188,-0.10938 0.32813,-0.0625 0.5,-0.35937 0.5,-0.57812 0,-0.17188 -0.125,-0.375 -0.42187,-0.375 -0.28125,0 -0.59375,0.21875 -0.59375,0.625 0,0.4375 0.4375,0.67187 0.96875,0.67187 0.76562,0 1.79687,-0.57812 2.0625,-1.67187 l 1.01562,-4.01563 c 0.0469,-0.21875 0.0469,-0.375 0.0469,-0.40625 0,-0.64062 -0.45313,-1.01562 -1,-1.01562 -1.125,0 -1.75,1.59375 -1.75,1.6875 0,0.10937 0.10937,0.10937 0.125,0.10937 0.10937,0 0.10937,0 0.20312,-0.21875 0.26563,-0.67187 0.78125,-1.34375 1.39063,-1.34375 0.14062,0 0.34375,0.0469 0.34375,0.51563 0,0.25 -0.0313,0.375 -0.0781,0.5625 z m 4.63282,-0.5625 c 0,-0.71875 -0.28125,-1.15625 -0.70313,-1.15625 -0.35937,0 -0.57812,0.28125 -0.57812,0.59375 0,0.29687 0.21875,0.57812 0.57812,0.57812 0.125,0 0.26563,-0.0469 0.375,-0.14062 0.0469,-0.0312 0.0469,-0.0312 0.0625,-0.0312 0.0156,0 0.0156,0 0.0156,0.15625 0,0.8125 -0.375,1.48437 -0.73438,1.84375 -0.125,0.125 -0.125,0.14062 -0.125,0.17187 0,0.0781 0.0469,0.125 0.10938,0.125 0.125,0 1,-0.84375 1,-2.14062 z m 0,0"
       style="fill:#ffffff;fill-opacity:1;fill-rule:nonzero;stroke:none;stroke-width:1.10395"
       id="path37"
       clip-path="url(#clipPath112)" />
    <path
       d="m 310.97657,129.8125 c 0,-0.25 0,-0.28125 -0.25,-0.28125 -0.6875,0.70312 -1.65625,0.70312 -2,0.70312 v 0.34375 c 0.21875,0 0.85937,0 1.4375,-0.28125 v 5.6875 c 0,0.40625 -0.0313,0.53125 -1.03125,0.53125 h -0.34375 v 0.34375 c 0.39062,-0.0312 1.34375,-0.0312 1.78125,-0.0312 0.4375,0 1.39062,0 1.78125,0.0312 v -0.34375 h -0.35938 c -0.98437,0 -1.01562,-0.125 -1.01562,-0.53125 z m 0,0"
       style="fill:#ffffff;fill-opacity:1;fill-rule:nonzero;stroke:none;stroke-width:1.10395"
       id="path38"
       clip-path="url(#clipPath111)" />
    <path
       d="m 352.42187,98.210941 c 0.0937,-0.375 0.125,-0.515625 0.35938,-0.578125 0.125,-0.03125 0.65625,-0.03125 0.98437,-0.03125 1.57813,0 2.32813,0.0625 2.32813,1.296875 0,0.234375 -0.0625,0.84375 -0.15625,1.421879 l -0.0156,0.1875 c 0,0.0781 0.0625,0.17187 0.15625,0.17187 0.15625,0 0.15625,-0.0781 0.20313,-0.34375 L 356.75,97.539065 c 0.0312,-0.140625 0.0312,-0.171875 0.0312,-0.21875 0,-0.171875 -0.0937,-0.171875 -0.42188,-0.171875 h -8.65625 c -0.375,0 -0.39062,0.01563 -0.48437,0.296875 l -0.9687,2.843755 c -0.0156,0.0312 -0.0625,0.20312 -0.0625,0.21875 0,0.0937 0.0625,0.17187 0.15625,0.17187 0.14062,0 0.17187,-0.0625 0.23437,-0.28125 0.65625,-1.906249 1,-2.796874 3.09375,-2.796874 h 1.0625 c 0.39063,0 0.54688,0 0.54688,0.171875 0,0.04687 0,0.07813 -0.0781,0.359375 l -2.125,8.515624 c -0.15625,0.60938 -0.1875,0.78125 -1.875,0.78125 -0.39062,0 -0.5,0 -0.5,0.29688 0,0.15625 0.17188,0.15625 0.25,0.15625 0.39063,0 0.8125,-0.0312 1.20313,-0.0312 h 2.46875 c 0.40625,0 0.82812,0.0312 1.21875,0.0312 0.17187,0 0.34375,0 0.34375,-0.29688 0,-0.15625 -0.10938,-0.15625 -0.53125,-0.15625 -1.42188,0 -1.42188,-0.15625 -1.42188,-0.39062 0,-0.0156 0,-0.125 0.0625,-0.375 z m 0,0"
       style="fill:#ffffff;fill-opacity:1;fill-rule:nonzero;stroke:none;stroke-width:1.10395"
       id="path40"
       clip-path="url(#clipPath125)" />
    <path
       d="m 359.26172,103.38282 c 0,-0.20313 -0.14063,-0.39063 -0.40625,-0.39063 -0.25,0 -0.59375,0.25 -0.59375,0.57813 0,0.21875 0.15625,0.39062 0.40625,0.39062 0.29687,0 0.59375,-0.28125 0.59375,-0.57812 z m -2.20313,7.42187 c -0.20312,0.84375 -0.73437,1.46875 -1.35937,1.46875 -0.0625,0 -0.21875,0 -0.42188,-0.10937 0.32813,-0.0625 0.5,-0.35938 0.5,-0.57813 0,-0.17187 -0.125,-0.375 -0.42187,-0.375 -0.28125,0 -0.59375,0.21875 -0.59375,0.625 0,0.4375 0.4375,0.67188 0.96875,0.67188 0.76562,0 1.79687,-0.57813 2.0625,-1.67188 l 1.01562,-4.01562 c 0.0469,-0.21875 0.0469,-0.375 0.0469,-0.40625 0,-0.64063 -0.45312,-1.01563 -1,-1.01563 -1.125,0 -1.75,1.59375 -1.75,1.6875 0,0.10938 0.10938,0.10938 0.125,0.10938 0.10938,0 0.10938,0 0.20313,-0.21875 0.26562,-0.67188 0.78125,-1.34375 1.39062,-1.34375 0.14063,0 0.34375,0.0469 0.34375,0.51562 0,0.25 -0.0312,0.375 -0.0781,0.5625 z m 4.62891,-0.5625 c 0,-0.71875 -0.28125,-1.15625 -0.70313,-1.15625 -0.35937,0 -0.57812,0.28125 -0.57812,0.59375 0,0.29688 0.21875,0.57813 0.57812,0.57813 0.125,0 0.26563,-0.0469 0.375,-0.14063 0.0469,-0.0312 0.0469,-0.0312 0.0625,-0.0312 0.0156,0 0.0156,0 0.0156,0.15625 0,0.8125 -0.375,1.48438 -0.73438,1.84375 -0.125,0.125 -0.125,0.14063 -0.125,0.17188 0,0.0781 0.0469,0.125 0.10938,0.125 0.125,0 1,-0.84375 1,-2.14063 z m 0,0"
       style="fill:#ffffff;fill-opacity:1;fill-rule:nonzero;stroke:none;stroke-width:1.10395"
       id="path41"
       clip-path="url(#clipPath124)" />
    <path
       d="m 363.89453,109.41407 1.17187,-1.14063 c 1.71875,-1.51562 2.375,-2.10937 2.375,-3.20312 0,-1.26563 -0.98437,-2.14063 -2.32812,-2.14063 -1.25,0 -2.0625,1.01563 -2.0625,2 0,0.60938 0.54687,0.60938 0.59375,0.60938 0.17187,0 0.5625,-0.125 0.5625,-0.57813 0,-0.29687 -0.20313,-0.57812 -0.57813,-0.57812 -0.0937,0 -0.10938,0 -0.14062,0.0156 0.25,-0.71875 0.84375,-1.125 1.48437,-1.125 1,0 1.46875,0.89063 1.46875,1.79688 0,0.875 -0.54687,1.75 -1.15625,2.42187 l -2.10937,2.35938 c -0.125,0.125 -0.125,0.14062 -0.125,0.40625 h 4.07812 l 0.3125,-1.90625 h -0.28125 c -0.0469,0.32812 -0.125,0.8125 -0.23437,0.96875 -0.0781,0.0937 -0.79688,0.0937 -1.04688,0.0937 z m 0,0"
       style="fill:#ffffff;fill-opacity:1;fill-rule:nonzero;stroke:none;stroke-width:1.10395"
       id="path42"
       clip-path="url(#clipPath123)" />
    <path
       d="m 438.47656,124.8125 c 0.0938,-0.375 0.125,-0.51563 0.35938,-0.57813 0.125,-0.0312 0.65625,-0.0312 0.98437,-0.0312 1.57813,0 2.32813,0.0625 2.32813,1.29688 0,0.23437 -0.0625,0.84375 -0.15625,1.42187 l -0.0156,0.1875 c 0,0.0781 0.0625,0.17188 0.15625,0.17188 0.15625,0 0.15625,-0.0781 0.20313,-0.34375 l 0.46875,-2.79688 c 0.0312,-0.14062 0.0312,-0.17187 0.0312,-0.21875 0,-0.17187 -0.0937,-0.17187 -0.42187,-0.17187 h -8.65626 c -0.375,0 -0.39062,0.0156 -0.48437,0.29687 l -0.96875,2.84375 c -0.0156,0.0312 -0.0625,0.20313 -0.0625,0.21875 0,0.0937 0.0625,0.17188 0.15625,0.17188 0.14062,0 0.17187,-0.0625 0.23437,-0.28125 0.65625,-1.90625 1,-2.79688 3.09375,-2.79688 h 1.0625 c 0.39063,0 0.54688,0 0.54688,0.17188 0,0.0469 0,0.0781 -0.0781,0.35937 l -2.125,8.51563 c -0.15625,0.60937 -0.1875,0.78125 -1.875,0.78125 -0.39062,0 -0.5,0 -0.5,0.29687 0,0.15625 0.17188,0.15625 0.25,0.15625 0.39063,0 0.8125,-0.0312 1.20313,-0.0312 h 2.46875 c 0.40625,0 0.82812,0.0312 1.21875,0.0312 0.17187,0 0.34375,0 0.34375,-0.29687 0,-0.15625 -0.10938,-0.15625 -0.53125,-0.15625 -1.42188,0 -1.42188,-0.15625 -1.42188,-0.39063 0,-0.0156 0,-0.125 0.0625,-0.375 z m 0,0"
       style="fill:#ffffff;fill-opacity:1;fill-rule:nonzero;stroke:none;stroke-width:1.10395"
       id="path44"
       clip-path="url(#clipPath128)" />
    <path
       d="m 445.31641,129.98437 c 0,-0.20312 -0.14063,-0.39062 -0.40625,-0.39062 -0.25,0 -0.59375,0.25 -0.59375,0.57812 0,0.21875 0.15625,0.39063 0.40625,0.39063 0.29687,0 0.59375,-0.28125 0.59375,-0.57813 z m -2.20313,7.42188 c -0.20312,0.84375 -0.73437,1.46875 -1.35937,1.46875 -0.0625,0 -0.21875,0 -0.42188,-0.10938 0.32813,-0.0625 0.5,-0.35937 0.5,-0.57812 0,-0.17188 -0.125,-0.375 -0.42187,-0.375 -0.28125,0 -0.59375,0.21875 -0.59375,0.625 0,0.4375 0.4375,0.67187 0.96875,0.67187 0.76562,0 1.79687,-0.57812 2.0625,-1.67187 l 1.01562,-4.01563 c 0.0469,-0.21875 0.0469,-0.375 0.0469,-0.40625 0,-0.64062 -0.45313,-1.01562 -1,-1.01562 -1.125,0 -1.75,1.59375 -1.75,1.6875 0,0.10937 0.10937,0.10937 0.125,0.10937 0.10937,0 0.10937,0 0.20312,-0.21875 0.26563,-0.67187 0.78125,-1.34375 1.39063,-1.34375 0.14062,0 0.34375,0.0469 0.34375,0.51563 0,0.25 -0.0312,0.375 -0.0781,0.5625 z m 4.62891,-0.5625 c 0,-0.71875 -0.28125,-1.15625 -0.70313,-1.15625 -0.35937,0 -0.57812,0.28125 -0.57812,0.59375 0,0.29687 0.21875,0.57812 0.57812,0.57812 0.12501,0 0.26563,-0.0469 0.37501,-0.14062 0.0469,-0.0312 0.0469,-0.0312 0.0625,-0.0312 0.0156,0 0.0156,0 0.0156,0.15625 0,0.8125 -0.375,1.48437 -0.73437,1.84375 -0.125,0.125 -0.125,0.14062 -0.125,0.17187 0,0.0781 0.0469,0.125 0.10938,0.125 0.125,0 1,-0.84375 1,-2.14062 z m 0,0"
       style="fill:#ffffff;fill-opacity:1;fill-rule:nonzero;stroke:none;stroke-width:1.10395"
       id="path45"
       clip-path="url(#clipPath127)" />
    <path
       d="m 451.7461,132.98437 c 0.90625,-0.29687 1.54687,-1.0625 1.54687,-1.9375 0,-0.89062 -0.96875,-1.51562 -2.03125,-1.51562 -1.10937,0 -1.9375,0.65625 -1.9375,1.5 0,0.35937 0.23438,0.5625 0.54688,0.5625 0.34375,0 0.5625,-0.23438 0.5625,-0.54688 0,-0.5625 -0.51563,-0.5625 -0.67188,-0.5625 0.34375,-0.53125 1.0625,-0.67187 1.45313,-0.67187 0.45312,0 1.0625,0.23437 1.0625,1.23437 0,0.125 -0.0156,0.76563 -0.3125,1.25 -0.32813,0.53125 -0.70313,0.5625 -0.96875,0.5625 -0.0937,0.0156 -0.35938,0.0469 -0.4375,0.0469 -0.0937,0 -0.15625,0.0156 -0.15625,0.125 0,0.125 0.0625,0.125 0.25,0.125 h 0.48437 c 0.90625,0 1.3125,0.75 1.3125,1.82812 0,1.48438 -0.75,1.8125 -1.23437,1.8125 -0.48438,0 -1.29688,-0.1875 -1.6875,-0.84375 0.39062,0.0625 0.71875,-0.1875 0.71875,-0.59375 0,-0.40625 -0.29688,-0.625 -0.60938,-0.625 -0.26562,0 -0.60937,0.15625 -0.60937,0.64063 0,1 1.01562,1.71875 2.21875,1.71875 1.34375,0 2.34375,-1 2.34375,-2.10938 0,-0.90625 -0.70313,-1.76562 -1.84375,-2 z m 0,0"
       style="fill:#ffffff;fill-opacity:1;fill-rule:nonzero;stroke:none;stroke-width:1.10395"
       id="path46"
       clip-path="url(#clipPath126)" />
    <path
       d="m 508.88672,98.210941 c 0.0937,-0.375 0.125,-0.515625 0.35937,-0.578125 0.125,-0.03125 0.65625,-0.03125 0.98438,-0.03125 1.57812,0 2.32812,0.0625 2.32812,1.296875 0,0.234375 -0.0625,0.84375 -0.15625,1.421879 l -0.0156,0.1875 c 0,0.0781 0.0625,0.17187 0.15625,0.17187 0.15625,0 0.15625,-0.0781 0.20312,-0.34375 l 0.46875,-2.796874 c 0.0312,-0.140625 0.0312,-0.171875 0.0312,-0.21875 0,-0.171875 -0.0937,-0.171875 -0.42187,-0.171875 h -8.65625 c -0.375,0 -0.39063,0.01563 -0.48438,0.296875 l -0.96875,2.843754 c -0.0156,0.0312 -0.0625,0.20312 -0.0625,0.21875 0,0.0937 0.0625,0.17187 0.15625,0.17187 0.14063,0 0.17188,-0.0625 0.23438,-0.28125 0.65625,-1.906248 1,-2.796873 3.09375,-2.796873 h 1.0625 c 0.39062,0 0.54687,0 0.54687,0.171875 0,0.04687 0,0.07813 -0.0781,0.359375 l -2.125,8.515623 c -0.15625,0.60938 -0.1875,0.78125 -1.875,0.78125 -0.39063,0 -0.5,0 -0.5,0.29688 0,0.15625 0.17187,0.15625 0.25,0.15625 0.39062,0 0.8125,-0.0312 1.20312,-0.0312 h 2.46875 c 0.40625,0 0.82813,0.0312 1.21875,0.0312 0.17188,0 0.34375,0 0.34375,-0.29688 0,-0.15625 -0.10937,-0.15625 -0.53125,-0.15625 -1.42187,0 -1.42187,-0.15625 -1.42187,-0.39062 0,-0.0156 0,-0.125 0.0625,-0.375 z m 0,0"
       style="fill:#ffffff;fill-opacity:1;fill-rule:nonzero;stroke:none;stroke-width:1.10395"
       id="path48"
       clip-path="url(#clipPath122)" />
    <path
       d="m 515.72656,103.38282 c 0,-0.20313 -0.14062,-0.39063 -0.40625,-0.39063 -0.25,0 -0.59375,0.25 -0.59375,0.57813 0,0.21875 0.15625,0.39062 0.40625,0.39062 0.29688,0 0.59375,-0.28125 0.59375,-0.57812 z m -2.20312,7.42187 c -0.20313,0.84375 -0.73438,1.46875 -1.35938,1.46875 -0.0625,0 -0.21875,0 -0.42187,-0.10937 0.32812,-0.0625 0.5,-0.35938 0.5,-0.57813 0,-0.17187 -0.125,-0.375 -0.42188,-0.375 -0.28125,0 -0.59375,0.21875 -0.59375,0.625 0,0.4375 0.4375,0.67188 0.96875,0.67188 0.76563,0 1.79688,-0.57813 2.0625,-1.67188 l 1.01562,-4.01562 c 0.0469,-0.21875 0.0469,-0.375 0.0469,-0.40625 0,-0.64063 -0.45313,-1.01563 -1,-1.01563 -1.125,0 -1.75,1.59375 -1.75,1.6875 0,0.10938 0.10937,0.10938 0.125,0.10938 0.10937,0 0.10937,0 0.20312,-0.21875 0.26563,-0.67188 0.78125,-1.34375 1.39063,-1.34375 0.14062,0 0.34375,0.0469 0.34375,0.51562 0,0.25 -0.0312,0.375 -0.0781,0.5625 z m 4.6289,-0.5625 c 0,-0.71875 -0.28125,-1.15625 -0.70312,-1.15625 -0.35938,0 -0.57813,0.28125 -0.57813,0.59375 0,0.29688 0.21875,0.57813 0.57813,0.57813 0.125,0 0.26562,-0.0469 0.375,-0.14063 0.0469,-0.0312 0.0469,-0.0312 0.0625,-0.0312 0.0156,0 0.0156,0 0.0156,0.15625 0,0.8125 -0.375,1.48438 -0.73437,1.84375 -0.125,0.125 -0.125,0.14063 -0.125,0.17188 0,0.0781 0.0469,0.125 0.10938,0.125 0.125,0 0.99999,-0.84375 0.99999,-2.14063 z m 0,0"
       style="fill:#ffffff;fill-opacity:1;fill-rule:nonzero;stroke:none;stroke-width:1.10395"
       id="path49"
       clip-path="url(#clipPath121)" />
    <path
       d="m 522.20312,108.44532 v 0.95312 c 0,0.39063 -0.0156,0.51563 -0.84375,0.51563 h -0.21875 v 0.34375 c 0.45313,-0.0312 1.01563,-0.0312 1.48438,-0.0312 0.45312,0 1.04687,0 1.48437,0.0312 v -0.34375 h -0.21875 c -0.8125,0 -0.84375,-0.125 -0.84375,-0.51563 v -0.95312 h 1.10938 v -0.34375 h -1.10938 v -5 c 0,-0.21875 0,-0.29688 -0.17187,-0.29688 -0.0937,0 -0.14063,0 -0.21875,0.14063 l -3.375,5.15625 v 0.34375 z m 0.0625,-0.34375 h -2.6875 l 2.6875,-4.10938 z m 0,0"
       style="fill:#ffffff;fill-opacity:1;fill-rule:nonzero;stroke:none;stroke-width:1.10395"
       id="path50"
       clip-path="url(#clipPath120)" />
    <path
       d="m 237.28125,172.76562 h 2.65625 c 2.1875,0 4.375,-1.625 4.375,-3.42187 0,-1.25 -1.04688,-2.375 -3.03125,-2.375 H 236.375 c -0.29688,0 -0.4375,0 -0.4375,0.3125 0,0.15625 0.14062,0.15625 0.375,0.15625 0.96875,0 0.96875,0.125 0.96875,0.29687 0,0.0312 0,0.125 -0.0625,0.35938 l -2.14063,8.53125 c -0.14062,0.54687 -0.17187,0.71875 -1.28125,0.71875 -0.29687,0 -0.45312,0 -0.45312,0.28125 0,0.17187 0.14062,0.17187 0.23437,0.17187 0.29688,0 0.60938,-0.0312 0.92188,-0.0312 h 1.84375 c 0.3125,0 0.64062,0.0312 0.9375,0.0312 0.125,0 0.29687,0 0.29687,-0.29687 0,-0.15625 -0.14062,-0.15625 -0.375,-0.15625 -0.95312,0 -0.96875,-0.125 -0.96875,-0.28125 0,-0.0781 0.0156,-0.1875 0.0312,-0.26563 z m 1.14062,-4.71875 c 0.14063,-0.57812 0.20313,-0.60937 0.82813,-0.60937 h 1.5625 c 1.1875,0 2.17187,0.375 2.17187,1.5625 0,0.42187 -0.20312,1.76562 -0.9375,2.48437 -0.26562,0.29688 -1.03125,0.89063 -2.46875,0.89063 h -2.23437 z m 0,0"
       style="fill:#ffffff;fill-opacity:1;fill-rule:nonzero;stroke:none;stroke-width:1.10395"
       id="path52"
       clip-path="url(#clipPath115)" />
    <path
       d="m 245.82422,173.125 c 0,-0.25 0,-0.28125 -0.25,-0.28125 -0.6875,0.70312 -1.65625,0.70312 -2,0.70312 v 0.34375 c 0.21875,0 0.85937,0 1.4375,-0.28125 v 5.6875 c 0,0.40625 -0.0313,0.53125 -1.03125,0.53125 h -0.34375 v 0.34375 c 0.39062,-0.0312 1.34375,-0.0312 1.78125,-0.0312 0.4375,0 1.39062,0 1.78125,0.0312 v -0.34375 h -0.35938 c -0.98437,0 -1.01562,-0.125 -1.01562,-0.53125 z m 0,0"
       style="fill:#ffffff;fill-opacity:1;fill-rule:nonzero;stroke:none;stroke-width:1.10395"
       id="path53"
       clip-path="url(#clipPath114)" />
    <path
       d="m 237.28125,243.17578 h 2.65625 c 2.1875,0 4.375,-1.625 4.375,-3.42188 0,-1.24999 -1.04688,-2.375 -3.03125,-2.375 H 236.375 c -0.29688,0 -0.4375,0 -0.4375,0.3125 0,0.15625 0.14062,0.15625 0.375,0.15625 0.96875,0 0.96875,0.125 0.96875,0.29688 0,0.0312 0,0.125 -0.0625,0.35938 l -2.14063,8.53125 c -0.14062,0.54687 -0.17187,0.71875 -1.28125,0.71875 -0.29687,0 -0.45312,0 -0.45312,0.28125 0,0.17187 0.14062,0.17187 0.23437,0.17187 0.29688,0 0.60938,-0.0312 0.92188,-0.0312 h 1.84375 c 0.3125,0 0.64062,0.0312 0.9375,0.0312 0.125,0 0.29687,0 0.29687,-0.29687 0,-0.15625 -0.14062,-0.15625 -0.375,-0.15625 -0.95312,0 -0.96875,-0.125 -0.96875,-0.28125 0,-0.0781 0.0156,-0.1875 0.0312,-0.26563 z m 1.14062,-4.71875 c 0.14063,-0.57813 0.20313,-0.60938 0.82813,-0.60938 h 1.5625 c 1.1875,0 2.17187,0.375 2.17187,1.5625 0,0.42188 -0.20312,1.76563 -0.9375,2.48438 -0.26562,0.29688 -1.03125,0.89063 -2.46875,0.89063 h -2.23437 z m 0,0"
       style="fill:#ffffff;fill-opacity:1;fill-rule:nonzero;stroke:none;stroke-width:1.10395"
       id="path55"
       clip-path="url(#clipPath117)" />
    <path
       d="m 243.98047,249.73828 1.17187,-1.14062 c 1.71875,-1.51563 2.375,-2.10938 2.375,-3.20313 0,-1.26562 -0.98437,-2.14062 -2.32812,-2.14062 -1.25,0 -2.0625,1.01562 -2.0625,2 0,0.60937 0.54687,0.60937 0.59375,0.60937 0.17187,0 0.5625,-0.125 0.5625,-0.57812 0,-0.29688 -0.20313,-0.57813 -0.57813,-0.57813 -0.0937,0 -0.10937,0 -0.14062,0.0156 0.25,-0.71875 0.84375,-1.125 1.48437,-1.125 1,0 1.46875,0.89062 1.46875,1.79687 0,0.875 -0.54687,1.75 -1.15625,2.42188 l -2.10937,2.35937 c -0.125,0.125 -0.125,0.14063 -0.125,0.40625 h 4.07812 l 0.3125,-1.90625 h -0.28125 c -0.0469,0.32813 -0.125,0.8125 -0.23437,0.96875 -0.0781,0.0937 -0.79688,0.0937 -1.04688,0.0937 z m 0,0"
       style="fill:#ffffff;fill-opacity:1;fill-rule:nonzero;stroke:none;stroke-width:1.10395"
       id="path56"
       clip-path="url(#clipPath116)" />
    <path
       d="m 237.28125,329.23047 h 2.65625 c 2.1875,0 4.375,-1.625 4.375,-3.42188 0,-1.25 -1.04688,-2.375 -3.03125,-2.375 H 236.375 c -0.29688,0 -0.4375,0 -0.4375,0.3125 0,0.15625 0.14062,0.15625 0.375,0.15625 0.96875,0 0.96875,0.125 0.96875,0.29688 0,0.0312 0,0.125 -0.0625,0.35937 l -2.14063,8.53125 c -0.14062,0.54688 -0.17187,0.71875 -1.28125,0.71875 -0.29687,0 -0.45312,0 -0.45312,0.28125 0,0.17188 0.14062,0.17188 0.23437,0.17188 0.29688,0 0.60938,-0.0312 0.92188,-0.0312 h 1.84375 c 0.3125,0 0.64062,0.0312 0.9375,0.0312 0.125,0 0.29687,0 0.29687,-0.29688 0,-0.15625 -0.14062,-0.15625 -0.375,-0.15625 -0.95312,0 -0.96875,-0.125 -0.96875,-0.28125 0,-0.0781 0.0156,-0.1875 0.0312,-0.26562 z m 1.14062,-4.71875 c 0.14063,-0.57813 0.20313,-0.60938 0.82813,-0.60938 h 1.5625 c 1.1875,0 2.17187,0.375 2.17187,1.5625 0,0.42188 -0.20312,1.76563 -0.9375,2.48438 -0.26562,0.29687 -1.03125,0.89062 -2.46875,0.89062 h -2.23437 z m 0,0"
       style="fill:#ffffff;fill-opacity:1;fill-rule:nonzero;stroke:none;stroke-width:1.10395"
       id="path58"
       clip-path="url(#clipPath119)" />
    <path
       d="m 245.77734,332.76172 c 0.90625,-0.29688 1.54688,-1.0625 1.54688,-1.9375 0,-0.89063 -0.96875,-1.51563 -2.03125,-1.51563 -1.10938,0 -1.9375,0.65625 -1.9375,1.5 0,0.35938 0.23437,0.5625 0.54687,0.5625 0.34375,0 0.5625,-0.23437 0.5625,-0.54687 0,-0.5625 -0.51562,-0.5625 -0.67187,-0.5625 0.34375,-0.53125 1.0625,-0.67188 1.45312,-0.67188 0.45313,0 1.0625,0.23438 1.0625,1.23438 0,0.125 -0.0156,0.76562 -0.3125,1.25 -0.32812,0.53125 -0.70312,0.5625 -0.96875,0.5625 -0.0937,0.0156 -0.35937,0.0469 -0.4375,0.0469 -0.0937,0 -0.15625,0.0156 -0.15625,0.125 0,0.125 0.0625,0.125 0.25,0.125 h 0.48438 c 0.90625,0 1.3125,0.75 1.3125,1.82813 0,1.48437 -0.75,1.8125 -1.23438,1.8125 -0.48437,0 -1.29687,-0.1875 -1.6875,-0.84375 0.39063,0.0625 0.71875,-0.1875 0.71875,-0.59375 0,-0.40625 -0.29687,-0.625 -0.60937,-0.625 -0.26563,0 -0.60938,0.15625 -0.60938,0.64062 0,1 1.01563,1.71875 2.21875,1.71875 1.34375,0 2.34375,-1 2.34375,-2.10937 0,-0.90625 -0.70312,-1.76563 -1.84375,-2 z m 0,0"
       style="fill:#ffffff;fill-opacity:1;fill-rule:nonzero;stroke:none;stroke-width:1.10395"
       id="path59"
       clip-path="url(#clipPath118)" />
    <path
       d="m 237.28125,407.46485 h 2.65625 c 2.1875,0 4.375,-1.625 4.375,-3.42188 0,-1.25 -1.04688,-2.375 -3.03125,-2.375 H 236.375 c -0.29688,0 -0.4375,0 -0.4375,0.3125 0,0.15625 0.14062,0.15625 0.375,0.15625 0.96875,0 0.96875,0.125 0.96875,0.29688 0,0.0312 0,0.125 -0.0625,0.35937 l -2.14063,8.53125 c -0.14062,0.54688 -0.17187,0.71875 -1.28125,0.71875 -0.29687,0 -0.45312,0 -0.45312,0.28125 0,0.17188 0.14062,0.17188 0.23437,0.17188 0.29688,0 0.60938,-0.0312 0.92188,-0.0312 h 1.84375 c 0.3125,0 0.64062,0.0312 0.9375,0.0312 0.125,0 0.29687,0 0.29687,-0.29688 0,-0.15625 -0.14062,-0.15625 -0.375,-0.15625 -0.95312,0 -0.96875,-0.125 -0.96875,-0.28125 0,-0.0781 0.0156,-0.1875 0.0312,-0.26562 z m 1.14062,-4.71875 c 0.14063,-0.57813 0.20313,-0.60938 0.82813,-0.60938 h 1.5625 c 1.1875,0 2.17187,0.375 2.17187,1.5625 0,0.42188 -0.20312,1.76563 -0.9375,2.48438 -0.26562,0.29687 -1.03125,0.89062 -2.46875,0.89062 h -2.23437 z m 0,0"
       style="fill:#ffffff;fill-opacity:1;fill-rule:nonzero;stroke:none;stroke-width:1.10395"
       id="path61"
       clip-path="url(#clipPath110)" />
    <path
       d="m 245.82422,413.0586 v 0.95312 c 0,0.39063 -0.0156,0.51563 -0.84375,0.51563 h -0.21875 v 0.34375 c 0.45312,-0.0312 1.01562,-0.0312 1.48437,-0.0312 0.45313,0 1.04688,0 1.48438,0.0312 v -0.34375 h -0.21875 c -0.8125,0 -0.84375,-0.125 -0.84375,-0.51563 v -0.95312 h 1.10937 v -0.34375 h -1.10937 v -5 c 0,-0.21875 0,-0.29688 -0.17188,-0.29688 -0.0937,0 -0.14062,0 -0.21875,0.14063 l -3.375,5.15625 v 0.34375 z m 0.0625,-0.34375 h -2.6875 l 2.6875,-4.10938 z m 0,0"
       style="fill:#ffffff;fill-opacity:1;fill-rule:nonzero;stroke:none;stroke-width:1.10395"
       id="path62"
       clip-path="url(#clipPath109)" />
  </g>
  <g
     inkscape:groupmode="layer"
     id="layer2"
     inkscape:label="rect"
     transform="translate(-228.66135,-92.774056)">
    <path
       d="M 0,0 V -269.29468 H 283.4681 V 0 Z"
       style="fill:none;stroke:#ffffff;stroke-width:0.79701;stroke-linecap:butt;stroke-linejoin:miter;stroke-miterlimit:10;stroke-dasharray:none;stroke-opacity:0.9"
       transform="matrix(1.1039467,0,0,-1.1039467,255.48061,146.19262)"
       clip-path="url(#clipPath108)"
       id="path34" />
    <path
       d="m 0,2.83463 v 21.2601 H 85.04042 V 2.83463 Z"
       style="fill:none;stroke:#ffffff;stroke-width:0.3985;stroke-linecap:butt;stroke-linejoin:miter;stroke-miterlimit:10;stroke-dasharray:none;stroke-opacity:0.9"
       transform="matrix(1.1039467,0,0,-1.1039467,255.48061,146.19262)"
       clip-path="url(#clipPath107)"
       id="path35" />
    <path
       d="m 28.3468,26.92937 v 21.2601 h 127.56064 v -21.2601 z"
       style="fill:none;stroke:#ffffff;stroke-width:0.3985;stroke-linecap:butt;stroke-linejoin:miter;stroke-miterlimit:10;stroke-dasharray:none;stroke-opacity:0.9"
       transform="matrix(1.1039467,0,0,-1.1039467,255.48061,146.19262)"
       clip-path="url(#clipPath105)"
       id="path39" />
    <path
       d="m 99.21382,2.83463 v 21.2601 H 240.94788 V 2.83463 Z"
       style="fill:none;stroke:#ffffff;stroke-width:0.3985;stroke-linecap:butt;stroke-linejoin:miter;stroke-miterlimit:10;stroke-dasharray:none;stroke-opacity:0.9"
       transform="matrix(1.1039467,0,0,-1.1039467,255.48061,146.19262)"
       clip-path="url(#clipPath103)"
       id="path43" />
    <path
       d="m 184.25424,26.92937 v 21.2601 h 99.21386 v -21.2601 z"
       style="fill:none;stroke:#ffffff;stroke-width:0.3985;stroke-linecap:butt;stroke-linejoin:miter;stroke-miterlimit:10;stroke-dasharray:none;stroke-opacity:0.9"
       transform="matrix(1.1039467,0,0,-1.1039467,255.48061,146.19262)"
       clip-path="url(#clipPath101)"
       id="path47" />
    <path
       d="m -2.83463,0 v -49.6069 h -21.2601 V 0 Z"
       style="fill:none;stroke:#ffffff;stroke-width:0.3985;stroke-linecap:butt;stroke-linejoin:miter;stroke-miterlimit:10;stroke-dasharray:none;stroke-opacity:0.9"
       transform="matrix(1.1039467,0,0,-1.1039467,255.48061,146.19262)"
       clip-path="url(#clipPath99)"
       id="path51" />
    <path
       d="m -2.83463,-49.6069 v -77.95372 h -21.2601 v 77.95372 z"
       style="fill:none;stroke:#ffffff;stroke-width:0.3985;stroke-linecap:butt;stroke-linejoin:miter;stroke-miterlimit:10;stroke-dasharray:none;stroke-opacity:0.9"
       transform="matrix(1.1039467,0,0,-1.1039467,255.48061,146.19262)"
       clip-path="url(#clipPath97)"
       id="path54" />
    <path
       d="m -2.83463,-127.56062 v -77.95374 h -21.2601 v 77.95374 z"
       style="fill:none;stroke:#ffffff;stroke-width:0.3985;stroke-linecap:butt;stroke-linejoin:miter;stroke-miterlimit:10;stroke-dasharray:none;stroke-opacity:0.9"
       transform="matrix(1.1039467,0,0,-1.1039467,255.48061,146.19262)"
       clip-path="url(#clipPath95)"
       id="path57" />
    <path
       d="m -2.83463,-205.51436 v -63.78032 h -21.2601 v 63.78032 z"
       style="fill:none;stroke:#ffffff;stroke-width:0.3985;stroke-linecap:butt;stroke-linejoin:miter;stroke-miterlimit:10;stroke-dasharray:none;stroke-opacity:0.9"
       transform="matrix(1.1039467,0,0,-1.1039467,255.48061,146.19262)"
       clip-path="url(#clipPath93)"
       id="path60" />
    <path
       d="M 0,0 V -49.6069 H 85.04042 V 0 Z"
       style="fill:none;stroke:#ffffff;stroke-width:0.79701;stroke-linecap:butt;stroke-linejoin:miter;stroke-miterlimit:10;stroke-dasharray:none;stroke-opacity:0.9"
       transform="matrix(1.1039467,0,0,-1.1039467,255.48061,146.19262)"
       clip-path="url(#clipPath91)"
       id="path63" />
    <path
       d="m 28.3468,-49.6069 v -77.95372 h 127.56064 v 77.95372 z"
       style="fill:none;stroke:#ffffff;stroke-width:0.79701;stroke-linecap:butt;stroke-linejoin:miter;stroke-miterlimit:10;stroke-dasharray:none;stroke-opacity:0.9"
       transform="matrix(1.1039467,0,0,-1.1039467,255.48061,146.19262)"
       clip-path="url(#clipPath90)"
       id="path64" />
    <path
       d="m 99.21382,-127.56062 v -77.95374 h 141.73406 v 77.95374 z"
       style="fill:none;stroke:#ffffff;stroke-width:0.79701;stroke-linecap:butt;stroke-linejoin:miter;stroke-miterlimit:10;stroke-dasharray:none;stroke-opacity:0.9"
       transform="matrix(1.1039467,0,0,-1.1039467,255.48061,146.19262)"
       clip-path="url(#clipPath89)"
       id="path65" />
    <path
       d="m 184.25424,-205.51436 v -63.78032 h 99.21386 v 63.78032 z"
       style="fill:none;stroke:#ffffff;stroke-width:0.79701;stroke-linecap:butt;stroke-linejoin:miter;stroke-miterlimit:10;stroke-dasharray:none;stroke-opacity:0.9"
       transform="matrix(1.1039467,0,0,-1.1039467,255.48061,146.19262)"
       clip-path="url(#clipPath88)"
       id="path66" />
  </g>
  <g
     inkscape:groupmode="layer"
     id="layer1"
     inkscape:label="colored"
     transform="translate(-228.66135,-92.774056)">
    <path
       d="m 0,0 h 42.5202 l 42.52022,-42.5202 v -7.0867 H 35.43349 L 0,-14.17339 Z"
       style="fill:#ff9b9b;fill-opacity:0.91735536;fill-rule:nonzero;stroke:#ffffff;stroke-width:0.3985;stroke-linecap:butt;stroke-linejoin:miter;stroke-miterlimit:10;stroke-dasharray:none;stroke-opacity:1"
       transform="matrix(1.1039467,0,0,-1.1039467,255.48061,146.19262)"
       clip-path="url(#clipPath87)"
       id="path67" />
    <path
       d="m 28.3468,-49.6069 h 56.69362 l 70.86702,-70.86702 v -7.0867 h -49.60692 z"
       style="fill:#ff9b9b;fill-opacity:0.91735536;fill-rule:nonzero;stroke:#ffffff;stroke-width:0.3985;stroke-linecap:butt;stroke-linejoin:miter;stroke-miterlimit:10;stroke-dasharray:none;stroke-opacity:1"
       transform="matrix(1.1039467,0,0,-1.1039467,255.48061,146.19262)"
       clip-path="url(#clipPath86)"
       id="path68" />
    <path
       d="m 99.21382,-127.56062 h 56.69362 l 77.95372,-77.95374 h -56.69362 z"
       style="fill:#ffacac;fill-opacity:0.91735536;fill-rule:nonzero;stroke:#ffffff;stroke-width:0.3985;stroke-linecap:butt;stroke-linejoin:miter;stroke-miterlimit:10;stroke-dasharray:none;stroke-opacity:1"
       transform="matrix(1.1039467,0,0,-1.1039467,255.48061,146.19262)"
       clip-path="url(#clipPath85)"
       id="path69" />
    <path
       d="m 184.25424,-205.51436 h 56.69364 l 42.52022,-42.52022 v -21.2601 h -35.43352 z"
       style="fill:#ff9b9b;fill-opacity:0.91735536;fill-rule:nonzero;stroke:#ffffff;stroke-width:0.3985;stroke-linecap:butt;stroke-linejoin:miter;stroke-miterlimit:10;stroke-dasharray:none;stroke-opacity:1"
       transform="matrix(1.1039467,0,0,-1.1039467,255.48061,146.19262)"
       clip-path="url(#clipPath84)"
       id="path70" />
    <path
       d="m 0,0 h 28.3468 l 255.1213,-255.12128 v -14.1734 H 255.12128 L 0,-14.17339 Z"
       style="fill:#dc5aff;fill-opacity:0.3581489;fill-rule:nonzero;stroke:#ffffff;stroke-width:0.3985;stroke-linecap:butt;stroke-linejoin:miter;stroke-miterlimit:10;stroke-dasharray:none;stroke-opacity:1"
       transform="matrix(1.1039467,0,0,-1.1039467,255.48061,146.19262)"
       clip-path="url(#clipPath83)"
       id="path71" />
  </g>
</svg>
